<?xml version="1.0" encoding="iso-8859-1"?>
<!-- Generator: Adobe Illustrator 19.0.0, SVG Export Plug-In . SVG Version: 6.00 Build 0)  -->
<svg version="1.1" id="Layer_1" xmlns="http://www.w3.org/2000/svg" xmlns:xlink="http://www.w3.org/1999/xlink" x="0px" y="0px"
	 viewBox="0 0 512 512" style="enable-background:new 0 0 512 512;" xml:space="preserve">
<g>
	<g>
		<path d="M489.739,0C484.618,0,30.625,0,22.261,0C13.04,0,5.565,7.475,5.565,16.696V395.13c0,9.22,7.475,16.696,16.696,16.696
			h161.163l-22.261,66.783h-16.467c-9.22,0-16.696,7.475-16.696,16.696S135.475,512,144.696,512c21.628,0,201.125,0,222.609,0
			c9.22,0,16.696-7.475,16.696-16.696s-7.475-16.696-16.696-16.696h-15.118l-22.261-66.783h159.814
			c9.22,0,16.696-7.475,16.696-16.696V16.696C506.435,7.475,498.96,0,489.739,0z M322.783,33.391h66.783v44.522
			c0,18.412-14.979,33.391-33.391,33.391c-18.412,0-33.391-14.979-33.391-33.391V33.391z M222.609,33.391h66.783v44.522
			c0,18.412-14.979,33.391-33.391,33.391c-18.412,0-33.391-14.979-33.391-33.391V33.391z M122.435,33.391h66.783v44.522
			c0,18.412-14.979,33.391-33.391,33.391c-18.412,0-33.391-14.979-33.391-33.391V33.391z M38.957,33.391h50.087v44.522
			c0,18.412-14.979,33.391-33.391,33.391c-5.915,0-11.657-1.567-16.696-4.479V33.391z M196.361,478.609l22.261-66.783h76.107
			l22.261,66.783H196.361z M473.043,378.435c-7.341,0-428.267,0-434.087,0v-33.391h434.087V378.435z M473.043,311.652H38.957
			V142.564c24.806,6.397,50.337-1.893,66.783-20.549c26.689,30.275,73.544,30.208,100.174,0c26.689,30.275,73.544,30.208,100.174,0
			c26.689,30.275,73.544,30.208,100.174,0c16.456,18.668,41.994,26.94,66.783,20.549V311.652z M473.043,106.825
			c-5.039,2.912-10.781,4.479-16.696,4.479c-18.412,0-33.391-14.979-33.391-33.391V33.391h50.087V106.825z"/>
	</g>
</g>
<g>
	<g>
		<path d="M222.609,178.087H89.044c-9.22,0-16.696,7.475-16.696,16.696v66.783c0,9.22,7.475,16.696,16.696,16.696h133.565
			c9.22,0,16.696-7.475,16.696-16.696v-66.783C239.304,185.562,231.829,178.087,222.609,178.087z M205.913,244.87H105.739v-33.391
			h100.174V244.87z"/>
	</g>
</g>
<g>
	<g>
		<path d="M422.957,178.087H289.391c-9.22,0-16.696,7.475-16.696,16.696c0,9.22,7.475,16.696,16.696,16.696h133.565
			c9.22,0,16.696-7.475,16.696-16.696C439.652,185.562,432.177,178.087,422.957,178.087z"/>
	</g>
</g>
<g>
	<g>
		<path d="M422.957,244.87H289.391c-9.22,0-16.696,7.475-16.696,16.696c0,9.22,7.475,16.696,16.696,16.696h133.565
			c9.22,0,16.696-7.475,16.696-16.696C439.652,252.345,432.177,244.87,422.957,244.87z"/>
	</g>
</g>
<g>
</g>
<g>
</g>
<g>
</g>
<g>
</g>
<g>
</g>
<g>
</g>
<g>
</g>
<g>
</g>
<g>
</g>
<g>
</g>
<g>
</g>
<g>
</g>
<g>
</g>
<g>
</g>
<g>
</g>
</svg>
